<svg xmlns="http://www.w3.org/2000/svg" version="1.1" xmlns:xlink="http://www.w3.org/1999/xlink" xmlns:svgjs="http://svgjs.dev/svgjs" width="1500" height="1500" viewBox="0 0 1500 1500"><rect width="1500" height="1500" fill="#ffffff"></rect><g transform="matrix(0.6666666666666666,0,0,0.6666666666666666,249.3944286814974,371.7297350683417)"><svg viewBox="0 0 396 297" data-background-color="#ffffff" preserveAspectRatio="xMidYMid meet" height="1125" width="1500" xmlns="http://www.w3.org/2000/svg" xmlns:xlink="http://www.w3.org/1999/xlink"><g id="tight-bounds" transform="matrix(1,0,0,1,0.23980624212703106,1.4141999168974735)"><svg viewBox="0 0 395.52 295.1996788328588" height="295.1996788328588" width="395.52"><g><svg viewBox="0 0 395.52 295.1996788328588" height="295.1996788328588" width="395.52"><g transform="matrix(1,0,0,1,0,196.08473842097447)"><svg viewBox="0 0 395.52 99.11494041188432" height="99.11494041188432" width="395.52"><g id="textblocktransform"><svg viewBox="0 0 395.52 99.11494041188432" height="99.11494041188432" width="395.52" id="textblock"><g><svg viewBox="0 0 395.52 99.11494041188432" height="99.11494041188432" width="395.52"><g transform="matrix(1,0,0,1,0,0)"><svg width="395.52" viewBox="-0.9302600000000005 -36.782344100670656 204.13106 51.15401507951456" height="99.11494041188432" data-palette-color="#840028"><path d="M25.516 5.596l-17.682 5.017-8.764-30.891 16.633-4.719 0.65 2.289-13.016 3.693 3.368 11.872 11.919-3.382 0.623 2.193-11.92 3.382 3.478 12.256 14.064-3.99zM30.07 4.86l-4.562-24.275 2.918-0.549 0.917 2.494c0.428-0.752 1.144-1.582 2.147-2.49 1.003-0.908 2.379-1.526 4.128-1.854v0c1.323-0.249 2.442-0.215 3.357 0.102 0.913 0.31 1.676 0.943 2.29 1.899v0c0.402-0.713 1.139-1.52 2.211-2.42 1.071-0.907 2.511-1.53 4.319-1.869v0c2.044-0.384 3.635-0.13 4.773 0.761 1.138 0.892 1.94 2.583 2.408 5.073v0l3.349 17.818-3.538 0.665-3.275-17.425c-0.353-1.88-0.884-3.097-1.591-3.649-0.707-0.552-1.694-0.709-2.958-0.472v0c-1.323 0.249-2.375 0.755-3.154 1.519-0.778 0.77-1.322 1.483-1.633 2.138v0c0.2 0.702 0.339 1.262 0.418 1.682v0l3.357 17.867-3.547 0.667-3.275-17.425c-0.347-1.848-0.866-3.056-1.556-3.625-0.698-0.574-1.663-0.746-2.895-0.514v0c-1.356 0.255-2.438 0.777-3.247 1.566-0.808 0.789-1.324 1.473-1.547 2.051v0l3.684 19.607zM65.347 11.526l-3.394-36.995 2.958-0.271 0.709 2.917c0.392-0.766 1.109-1.591 2.153-2.477 1.043-0.892 2.55-1.429 4.522-1.609v0c2.881-0.264 5.283 0.59 7.204 2.562 1.915 1.973 3.047 4.862 3.396 8.666v0c0.379 4.129-0.19 7.489-1.706 10.078-1.517 2.583-3.866 4.02-7.046 4.312v0c-1.341 0.123-2.495 0.058-3.462-0.195-0.968-0.259-1.716-0.572-2.245-0.938-0.529-0.367-0.797-0.583-0.803-0.65v0l-0.05 0.005 1.3 14.17zM72.752-3.543c2.556-0.235 4.341-1.315 5.356-3.243 1.015-1.927 1.352-4.743 1.012-8.448v0c-0.316-3.446-1.136-5.884-2.459-7.316-1.323-1.432-3.1-2.045-5.33-1.841v0c-1.182 0.108-2.175 0.447-2.98 1.017-0.811 0.57-1.41 1.164-1.794 1.781-0.392 0.612-0.584 0.967-0.575 1.067v0l1.403 15.296c0.401 0.425 1.042 0.845 1.923 1.259 0.882 0.415 2.029 0.557 3.444 0.428zM97.31-2.277c-3.426 0.046-6.051-1.036-7.874-3.244-1.823-2.216-2.762-5.367-2.817-9.453v0c-0.055-4.08 0.799-7.251 2.563-9.516 1.763-2.264 4.358-3.419 7.784-3.464v0c3.42-0.046 6.044 1.039 7.874 3.254 1.823 2.216 2.762 5.363 2.817 9.443v0c0.054 4.053-0.817 7.218-2.613 9.496-1.796 2.278-4.374 3.439-7.734 3.484zM97.281-4.446c2.306-0.031 3.991-0.934 5.055-2.708 1.063-1.774 1.57-4.458 1.522-8.052v0c-0.048-3.553-0.627-6.212-1.737-7.977-1.11-1.765-2.819-2.632-5.126-2.602v0c-2.306 0.031-3.991 0.937-5.054 2.719-1.063 1.774-1.57 4.455-1.522 8.041v0c0.048 3.593 0.627 6.262 1.737 8.007 1.11 1.745 2.818 2.602 5.125 2.572zM112.597-2.634l1.176-24.672 2.657 0.127 0.307 5.11c0.01-0.2 0.223-0.757 0.64-1.671 0.424-0.921 1.052-1.775 1.884-2.563 0.825-0.782 1.863-1.143 3.115-1.083v0c0.626 0.03 1.327 0.17 2.102 0.42 0.782 0.251 1.284 0.432 1.506 0.542v0l-0.469 2.701c-0.228-0.111-0.741-0.286-1.537-0.524-0.797-0.232-1.508-0.362-2.133-0.392v0c-0.952-0.045-1.78 0.236-2.483 0.843-0.703 0.607-1.238 1.266-1.606 1.976-0.361 0.71-0.6 1.243-0.717 1.598v0l-0.846 17.759zM132.673-31.08c-0.591-0.05-1.051-0.273-1.379-0.669v0c-0.389-0.461-0.558-1.004-0.505-1.628v0c0.053-0.624 0.31-1.131 0.771-1.521v0c0.389-0.328 0.879-0.468 1.47-0.417v0c0.624 0.053 1.102 0.257 1.434 0.612v0c0.363 0.459 0.516 1.017 0.461 1.675v0c-0.05 0.591-0.294 1.099-0.731 1.524v0c-0.489 0.327-0.996 0.468-1.521 0.424zM131.949-1.356l-3.587-0.303 2.078-24.612 3.587 0.303zM139.7-0.38l2.922-22.088-2.548-0.337 0.271-2.052 2.587 0.04 0.466-3.52c0.419-3.166 1.216-5.427 2.391-6.785 1.181-1.357 2.929-1.882 5.242-1.576v0c0.786 0.104 1.509 0.307 2.168 0.61 0.653 0.302 1.175 0.596 1.568 0.883 0.4 0.282 0.645 0.462 0.735 0.541v0l-0.748 1.848c-0.09-0.079-0.286-0.229-0.586-0.451-0.3-0.221-0.704-0.45-1.211-0.684-0.5-0.234-1.028-0.388-1.583-0.462v0c-0.879-0.116-1.591 0.008-2.137 0.373-0.545 0.358-1.011 1.06-1.399 2.105-0.387 1.045-0.708 2.529-0.962 4.452v0l-0.408 3.083 7.098 0.939-0.317 2.399-7.098-0.939-2.922 22.088zM150.952 14.275c-0.583-0.111-1.074-0.256-1.474-0.434-0.402-0.172-0.708-0.328-0.918-0.471-0.204-0.141-0.335-0.234-0.395-0.279v0l0.818-2.154c0.079 0.083 0.305 0.218 0.676 0.403 0.365 0.185 0.774 0.321 1.226 0.407v0c1.487 0.284 2.883-0.278 4.19-1.684 1.308-1.413 2.901-3.699 4.779-6.856v0l-4.823-26.371 4.175 0.796 3.31 21.654 10.373-19.043 2.573 0.491-13.102 23.053c-2.147 3.71-4.09 6.482-5.831 8.314-1.74 1.826-3.598 2.551-5.577 2.174zM174.629 6.044l-3.198-0.855 14.042-12.755-5.371-18.164 4.396 1.175 4.208 15.038 11.49-10.84 3.005 0.803-13.516 12.493 5.84 18.693-4.435-1.186-4.603-15.495-0.049-0.013z" opacity="1" transform="matrix(1,0,0,1,0,0)" fill="#840028" class="wordmark-text-0" data-fill-palette-color="primary" id="text-0"></path></svg></g></svg></g></svg></g></svg></g><g transform="matrix(1,0,0,1,125.045558021154,0)"><svg viewBox="0 0 145.428883957692 160.3679735864288" height="160.3679735864288" width="145.428883957692"><g><svg xmlns="http://www.w3.org/2000/svg" data-name="Layer 1" viewBox="6.017941525364105 1.49 87.98209521535851 97.02000000000001" x="0" y="0" height="160.3679735864288" width="145.428883957692" class="icon-icon-0" data-fill-palette-color="accent" id="icon-0"><path d="M69.57 41.35A12.75 12.75 0 0 0 79.69 46.4H80.56A11.61 11.61 0 0 0 89.82 40.67 12.37 12.37 0 0 0 90.51 29.24L80 5.78A7.29 7.29 0 0 0 73.36 1.49H25.47A7.29 7.29 0 0 0 18.83 5.78L8.29 29.22A12.37 12.37 0 0 0 9 40.65 11.61 11.61 0 0 0 18.26 46.38H19.13A12.75 12.75 0 0 0 29.25 41.32 12.75 12.75 0 0 0 39.36 46.4 12.59 12.59 0 0 0 49.36 41.46 12.59 12.59 0 0 0 59.36 46.4 12.74 12.74 0 0 0 69.57 41.35M50.75 38A1.5 1.5 0 0 0 48.06 38 9.63 9.63 0 0 1 39.36 43.43 9.73 9.73 0 0 1 30.59 37.85 1.5 1.5 0 0 0 27.88 37.85 9.73 9.73 0 0 1 19.11 43.43H18.44A8.65 8.65 0 0 1 11.55 39.15 9.37 9.37 0 0 1 11 30.45L21.57 7A4.29 4.29 0 0 1 25.47 4.48H73.33A4.29 4.29 0 0 1 77.23 7L87.77 30.45A9.37 9.37 0 0 1 87.25 39.11 8.65 8.65 0 0 1 80.36 43.39H79.69A9.74 9.74 0 0 1 70.92 37.81 1.5 1.5 0 0 0 68.21 37.81 9.73 9.73 0 0 1 59.45 43.39 9.63 9.63 0 0 1 50.75 38" fill="#ffb130" data-fill-palette-color="accent"></path><path d="M57.09 76.38A1.5 1.5 0 0 0 55.59 74.88H26.45V49.73A1.5 1.5 0 0 0 23.45 49.73V76.38A1.5 1.5 0 0 0 24.95 77.88H55.59A1.5 1.5 0 0 0 57.09 76.38" fill="#ffb130" data-fill-palette-color="accent"></path><path d="M11.92 77.88H15.65A1.5 1.5 0 0 0 17.15 76.38V50.46A1.5 1.5 0 0 0 14.15 50.46V74.88H11.92A6.15 6.15 0 0 0 11.92 87.17H52.41A1.5 1.5 0 0 0 52.41 84.17H11.92A3.15 3.15 0 0 1 11.92 77.88" fill="#ffb130" data-fill-palette-color="accent"></path><path d="M61 98.51H90.15A3.86 3.86 0 0 0 94 94.66V88.92A18.22 18.22 0 0 0 84.83 73.07 13 13 0 1 0 66.34 73.07 18.22 18.22 0 0 0 57.17 88.92V94.66A3.86 3.86 0 0 0 61 98.51M60.14 88.91A15.24 15.24 0 0 1 69.61 74.77 1.5 1.5 0 0 0 69.89 72.15 10 10 0 1 1 81.22 72.15 1.5 1.5 0 0 0 81.5 74.77 15.24 15.24 0 0 1 91 88.92V94.66A0.86 0.86 0 0 1 90.14 95.52H61A0.86 0.86 0 0 1 60.14 94.66Z" fill="#ffb130" data-fill-palette-color="accent"></path></svg></g></svg></g><g></g></svg></g><defs></defs></svg><rect width="395.52" height="295.1996788328588" fill="none" stroke="none" visibility="hidden"></rect></g></svg></g></svg>